<?xml version="1.0" encoding="UTF-8"?>
<svg version="1.1" viewBox="0 0 1000 1000" xmlns="http://www.w3.org/2000/svg">
 <g stroke="#000">
  <path d="m728.35 755.34c-0.13438 0.13875-1.0538-0.5168-2.7888-1.8096s-4.2938-3.2229-7.8204-5.445-8.0323-4.7384-13.626-6.9993c-5.594-2.261-12.289-4.2697-19.976-5.2334-6.7455-0.848-14.263-0.87399-22.201 0.40006-7.9385 1.2741-16.305 3.8504-24.384 8.1751-1e-5 0-1e-5 1e-5 -2e-5 1e-5 -6.4165 3.4309-12.651 7.9772-18.268 13.622-5.6163 5.6449-10.615 12.39-14.416 20.073-3.3049 6.6715-5.7058 14.067-6.9505 21.878-1.2446 7.8111-1.3329 16.038 5e-3 24.237 1.1093 6.8959 3.2278 13.771 6.2496 20.443 3.0218 6.6717 6.9468 13.14 11.612 19.185 8.7144 11.286 20.12 21.113 33.06 29.398 15.325 9.8261 32.681 17.314 51.417 22.576 18.736 5.2627 38.85 8.3017 59.378 9.4963 15.719 0.89931 31.752 0.73889 48.056-0.074 16.304-0.81293 32.88-2.2772 49.677-3.8907 6.7836-0.65159 13.541-1.3202 20.269-1.97 21.837-0.65011 43.331-1.1322 64.401-1.4966-10.962-7.6571-20.597-16.673-28.721-26.569-8.1244-9.8951-14.738-20.669-19.721-31.891-4.4251-11.094-7.4498-22.335-9.7922-33.452s-4.0028-22.111-5.5768-32.761c-1e-5 -1e-5 -1e-5 -3e-5 -1e-5 -4e-5 -1.7485-11.62-3.4163-22.95-5.603-33.774s-4.8924-21.143-8.5317-30.806c-3.9413-10.466-8.9038-20.114-15.284-28.124-3.437-4.3094-7.277-8.1783-11.406-11.431-4.1287-3.2526-8.546-5.8891-13.153-7.7884-6.3628-2.6652-13.072-3.9091-19.612-4.0725-6.5394-0.16337-12.91 0.75391-18.766 2.4538-7.0249 2.037-13.35 5.1876-18.907 8.8701s-10.348 7.8986-14.4 12.234c-6.5223 6.9887-11.142 14.322-14.443 21.032-3.3009 6.7094-5.2939 12.811-6.594 17.828-1.3001 5.0177-1.9182 8.966-2.3334 11.632-0.41523 2.6662-0.63712 4.0592-0.8532 4.053-0.21608-6e-3 -0.42078-1.4125-0.41889-4.1512 2e-3 -2.7387 0.2187-6.8192 1.159-12.068 0.94031-5.2488 2.6145-11.68 5.7026-18.833 1.5441-3.5763 3.4433-7.3269 5.7859-11.149 2.3426-3.8218 5.1289-7.7152 8.4426-11.537 4.1095-4.746 9.0487-9.3969 14.888-13.517 5.839-4.1203 12.579-7.7116 20.202-10.164 6.3748-2.0491 13.36-3.2348 20.625-3.2069 7.2644 0.0279 14.809 1.2693 22.131 4.1222 5.2675 2.0822 10.306 4.9475 14.992 8.4813 4.6864 3.5338 9.0206 7.7362 12.864 12.438 7.1227 8.7045 12.673 18.998 16.951 29.995 3.945 10.143 6.9178 20.862 9.3164 31.958s4.223 22.571 6.0566 34.163c0 2e-5 1e-5 3e-5 1e-5 4e-5 1.7077 10.615 3.4407 21.429 5.7815 32.19 2.3409 10.761 5.2901 21.469 9.5545 31.826 4.3432 11.8 10.197 23.243 17.435 33.901 7.2376 10.659 15.859 20.534 25.678 29.145-21.859 3.2415-44.189 6.7233-66.882 10.411-6.7138 0.65973-13.475 1.3353-20.28 1.9906-16.85 1.6228-33.588 3.0769-50.153 3.861-16.565 0.78411-32.956 0.89712-49.112-0.067-21.133-1.241-41.939-4.5153-61.412-10.16-19.473-5.6452-37.61-13.662-53.711-24.112-13.593-8.8352-25.638-19.499-34.953-31.8-5.001-6.6-9.1725-13.691-12.364-21.033-3.1917-7.3421-5.4036-14.935-6.5426-22.576-1.3389-9.107-1.0954-18.154 0.41844-26.7 1.5138-8.5456 4.2979-16.59 8.0589-23.831 4.3343-8.3335 9.9253-15.55 16.151-21.527 6.2255-5.9773 13.086-10.717 20.11-14.239 1e-5 -1e-5 1e-5 -1e-5 2e-5 -1e-5 8.8475-4.4323 17.883-6.9213 26.382-8.0017 8.4994-1.0804 16.469-0.75462 23.56 0.43153 8.079 1.3542 14.989 3.7952 20.675 6.4729s10.161 5.5954 13.579 8.1821c3.4181 2.5868 5.7907 4.8452 7.3003 6.4391 1.5096 1.594 2.1639 2.5243 2.0296 2.663z" fill-rule="evenodd"/>
  <path d="m624.22 143.37c-0.13394-0.0533 0.18502-1.2612 0.98127-3.5658s2.0708-5.706 3.9195-10.111c1.8488-4.405 4.2729-9.8142 7.4238-16.092 3.1508-6.2774 7.0296-13.424 11.824-21.248 4.781-7.8149 10.513-16.388 17.691-25.08 3.5891-4.3464 7.5435-8.7158 11.95-12.978 4.407-4.2627 9.2664-8.419 14.685-12.299 10.622-7.5772 23.297-13.862 37.6-17.86 7.1515-1.999 14.701-3.424 22.537-4.1369 7.836-0.7128 15.958-0.71338 24.211 0.14585 13.699 1.4316 27.704 5.2028 41.213 11.455 13.509 6.2526 26.523 14.988 37.936 26.165 10.086 9.8831 18.888 21.607 25.874 34.768 6.9861 13.161 12.156 27.759 14.909 43.185 2.5112 14.095 3.0212 28.822 1.4177 43.636s-5.3206 29.714-11.221 44.023c-4.7226 11.402-10.697 22.293-17.33 32.917-6.6323 10.625-13.922 20.983-21.163 31.374-38.924 54.842-78.348 114.74-116.73 179.16-38.379 64.41-75.705 133.33-110.59 205.94 3.1157-6.0792 5.89-12.385 8.3105-18.875 5.9296-15.898 9.6653-32.706 11.182-49.727 3.6466-23.594 2.7268-47.679-2.7587-70.382-5.5952-23.207-15.947-44.983-29.657-63.907-14.072-19.41-31.71-35.861-51.523-48.093-18.555-11.492-38.972-19.438-59.475-26.134-21.327-6.9469-42.887-12.564-63.859-19.291-21.7-6.9434-42.836-15.22-61.891-26.65-9.9624-5.9675-19.333-12.861-27.7-20.632-8.3677-7.7713-15.733-16.421-21.749-25.895-7.8124-12.379-13.089-25.919-16.038-39.688-2.9485-13.77-3.5686-27.769-2.0809-41.235 1.617-14.593 5.6194-28.503 11.33-41.281 5.711-12.778 13.131-24.426 21.678-34.63 9.514-11.355 20.35-20.939 31.793-28.854 11.443-7.9152 23.493-14.162 35.596-18.891 14.104-5.5099 28.248-9.0042 41.939-11.004 13.691-1.9996 26.929-2.5044 39.4-1.9697 12.178 0.52021 23.642 2.0478 34.275 4.2178 10.633 2.1701 20.436 4.9829 29.367 8.125 8.9316 3.1421 16.993 6.6137 24.198 10.15 7.2051 3.5368 13.555 7.139 19.097 10.589 5.5418 3.4503 10.277 6.7489 14.267 9.7233 3.9899 2.9744 7.2356 5.6248 9.7937 7.8224s4.4295 3.9424 5.6496 5.1492c1.22 1.2068 1.7894 1.8756 1.7096 1.966-0.0798 0.0905-0.8075-0.39869-2.1778-1.4222s-3.384-2.581-6.07-4.5836c-2.6859-2.0026-6.045-4.45-10.127-7.2119-4.0823-2.7618-8.889-5.8381-14.475-9.057-5.5858-3.2189-11.952-6.5806-19.139-9.8714-7.1871-3.2908-15.196-6.5107-24.034-9.4024-8.8375-2.8916-18.505-5.4551-28.952-7.3868-10.448-1.9317-21.677-3.2318-33.564-3.5483-12.178-0.32233-25.065 0.3606-38.335 2.4803s-26.924 5.6761-40.462 11.163c-11.61 4.705-23.14 10.849-34.044 18.555-10.904 7.7065-21.182 16.976-30.128 27.883-8.033 9.7911-14.986 20.928-20.303 33.081-5.3172 12.153-8.9986 25.323-10.393 39.045-1.2891 12.645-0.60851 25.782 2.2299 38.65 2.8384 12.869 7.8346 25.469 15.164 36.874 5.6024 8.7765 12.542 16.812 20.473 24.069 7.9315 7.2574 16.855 13.737 26.362 19.407 18.226 10.855 38.752 18.735 60.128 25.514 20.682 6.5408 42.261 12.073 63.979 19.059 20.9 6.7049 42.02 14.896 61.624 26.903 20.947 12.868 39.558 30.129 54.406 50.538 14.478 19.889 25.408 42.808 31.366 67.338 5.8184 24.004 6.8195 49.38 2.982 74.242-3.7075 16.804-9.7846 33.373-18.202 49.007-3.4358 6.3821-7.245 12.578-11.414 18.543 33.428-73.744 69.367-143.75 106.54-209.11 37.177-65.361 75.585-126.08 113.75-181.54 7.2928-10.404 14.556-20.6 21.097-30.91 6.5401-10.31 12.357-20.734 16.867-31.544 5.6687-13.524 9.293-27.643 10.918-41.688 1.6251-14.046 1.2512-28.019-1.0338-41.382-2.52-14.62-7.31-28.51-13.82-41.063-6.52-12.552-14.76-23.761-24.24-33.212-10.7-10.688-22.99-19.125-35.77-25.222s-26.06-9.855-39.07-11.371c-7.8321-0.91583-15.571-1.0174-23.058-0.44052-7.4873 0.57692-14.723 1.8324-21.594 3.639-13.741 3.6132-25.985 9.423-36.289 16.508-5.2777 3.615-10.044 7.5341-14.394 11.582-4.3507 4.0481-8.2857 8.2256-11.883 12.398-7.1944 8.3455-13.051 16.643-18.007 24.227-4.9598 7.6027-9.0298 14.553-12.39 20.655-3.3602 6.1023-6.012 11.358-8.1001 15.625-2.0882 4.2672-3.614 7.5466-4.6686 9.7374-1.0545 2.1908-1.6387 3.2932-1.7726 3.24z" stroke-width="1.8209"/>
  <path d="m247.76 513.72c-0.1665 0.0875-0.9842-1.1376-2.5744-3.4894s-3.9645-5.8345-7.4796-10.049c-3.5152-4.214-8.1871-9.1682-14.398-14.151-6.2112-4.9827-13.979-10.005-23.458-13.895-6.4173-2.6377-13.604-4.748-21.443-6.0176s-16.333-1.6978-25.194-0.97343c-7.2792 0.59453-14.806 1.9692-22.41 4.2094-7.6035 2.2402-15.284 5.3465-22.801 9.3567-7.0719 3.7739-13.987 8.385-20.545 13.824-6.558 5.4394-12.759 11.707-18.359 18.746-10.114 12.722-18.322 28.034-22.817 45.089-3.2236 12.134-4.5852 25.068-4.1333 38.368 0.45186 13.3 2.7175 26.966 6.6243 40.415 3.5899 12.341 8.5626 24.528 14.66 36.5 6.0971 11.972 13.319 23.73 21.308 35.215 7.4969 10.765 15.695 21.307 24.335 31.801 8.6404 10.493 17.723 20.937 26.937 31.541 17.549 20.175 35.691 40.998 51.788 64.258 14.28 23.082 26.265 48.372 35.328 75.309 0.85885-7.9334 2.1699-15.829 3.9241-23.638 3.6124-16.082 9.0457-31.539 16.037-46.009 6.9909-14.469 15.539-27.951 25.386-40.129 8.856-10.338 18.501-19.681 28.511-28.351 10.01-8.6701 20.386-16.668 30.745-24.286 10.895-8.0286 21.8-15.689 32.423-23.353 10.622-7.6643 20.961-15.333 30.766-23.323 10.35-8.4493 20.149-17.285 28.973-26.626 8.8238-9.342 16.672-19.191 23.214-29.629 0-2e-5 1e-5 -3e-5 2e-5 -4e-5 7.0445-11.256 12.587-23.25 16.193-35.401 3.6063-12.151 5.2765-24.46 4.7406-36.463-0.66861-16.135-5.4004-31.538-12.557-44.895-3.8933-7.2568-8.5127-13.938-13.65-19.934-5.1371-5.996-10.792-11.307-16.784-15.868-7.1789-5.4773-14.813-9.8838-22.58-13.35-7.7663-3.4662-15.665-5.9923-23.45-7.7164-7.7853-1.7241-15.458-2.6465-22.843-2.9106-7.3851-0.26413-14.484 0.12978-21.183 1.0354-7.5265 1.0173-14.56 2.6697-21.038 4.6989-6.4784 2.0292-12.403 4.4354-17.763 7.0037-10.72 5.1366-19.165 10.888-25.642 15.986-6.4772 5.0987-11.017 9.5523-14.044 12.589-3.0271 3.0364-4.5642 4.6576-4.7445 4.5118-0.18029-0.14584 1.0021-2.0558 3.7276-5.425s7.0164-8.2012 13.351-13.736c6.3343-5.535 14.742-11.781 25.599-17.434 5.4283-2.8264 11.464-5.4951 18.108-7.7814 6.6434-2.2863 13.895-4.1904 21.704-5.4408 6.9551-1.1135 14.348-1.6953 22.065-1.584 7.7178 0.11125 15.762 0.91569 23.956 2.5739 8.1944 1.6582 16.54 4.1704 24.789 7.6935 8.2493 3.5232 16.403 8.0576 24.135 13.754 6.4513 4.7644 12.553 10.331 18.112 16.643 5.559 6.3117 10.575 13.368 14.827 21.069 7.836 14.174 13.088 30.637 14.017 48.132 0.65035 12.973-0.99835 26.211-4.7012 39.216s-9.46 25.777-16.861 37.697c-1e-5 2e-5 -2e-5 3e-5 -3e-5 5e-5 -6.8406 11.033-14.975 21.407-24.063 31.181-9.0886 9.7748-19.131 18.951-29.695 27.629-9.9847 8.2175-20.434 16.054-31.086 23.816-10.651 7.7626-21.504 15.452-32.254 23.431-10.204 7.589-20.358 15.464-30.074 23.91-9.7161 8.4458-18.994 17.463-27.407 27.367-10.587 11.774-19.97 24.805-27.889 38.779-7.9191 13.973-14.374 28.889-19.098 44.386-2.2939 7.5252-4.1617 15.129-5.5926 22.763-12.028-25.852-26.845-50.126-43.767-72.278-15.609-22.703-33.478-43.314-50.934-63.565-9.1765-10.634-18.271-21.188-26.965-31.861-8.688-10.66-16.981-21.45-24.606-32.52-8.142-11.81-15.501-23.98-21.719-36.44-6.218-12.45-11.295-25.2-14.972-38.14-4.0189-14.129-6.2599-28.522-6.5801-42.57-0.32015-14.048 1.2802-27.75 4.8194-40.648 5.0186-18.158 13.916-34.272 24.793-47.562 6.0165-7.3568 12.654-13.872 19.656-19.499 7.0021-5.627 14.369-10.366 21.886-14.219 7.9747-4.0884 16.107-7.2034 24.144-9.4008s15.979-3.4776 23.645-3.9423c9.3363-0.56546 18.239 0.099 26.419 1.6428 8.1798 1.5438 15.64 3.966 22.265 6.9225 9.7906 4.3756 17.67 9.8797 23.869 15.293 6.1998 5.4128 10.738 10.746 14.053 15.276 3.3146 4.5306 5.4212 8.2683 6.7134 10.834s1.781 3.9645 1.6144 4.052z" fill-rule="evenodd"/>
 </g>
</svg>
